<?xml version="1.0" encoding="UTF-8" ?>
<!DOCTYPE svg PUBLIC "-//W3C//DTD SVG 1.1//EN" "http://www.w3.org/Graphics/SVG/1.1/DTD/svg11.dtd">
<svg xmlns="http://www.w3.org/2000/svg">
<symbol viewBox="0 0 1638 1638" id="icon-xEdit">
  <path d="M799.51 0h38.96c12.48.92 25.02.92 37.51 1.95 133.85 8.97 265.21 51.8 378.65 123.41 103.86 65.27 192.76 154.15 258.02 258.02 71.77 113.72 114.62 245.46 123.44 379.65 1.01 12.8 1.17 25.65 1.91 38.47v34.98c-.74 12.47-.87 24.98-1.84 37.45-8.54 132.12-50 261.92-119.67 374.51-65.61 106.51-155.95 197.64-261.87 264.2-113.43 71.59-244.78 114.42-378.62 123.39-12.82 1.03-25.68 1.18-38.51 1.97h-36.96c-81.15-2.26-162.1-15.66-239.16-41.36-120.27-39.72-230.86-108.08-320.47-197.54-90.99-90.53-160.42-202.69-200.25-324.74C15.29 997.68 2.14 917.18 0 836.5v-34.99c.73-12.47.87-24.98 1.84-37.44 8.59-132.85 50.43-263.41 120.88-376.39 66.44-107.4 158.21-198.95 265.58-265.41C500.6 52.51 630.1 10.8 762.01 1.95 774.49.92 787.03.92 799.51 0M744 51.98c3.85 13.99 1.22 28.7 2 43.02.51 4.66-1.55 10.18 2.01 13.98 7.66 10.15 15.06 21.08 17.12 33.91 3.51 9.82.94 21.18-5.08 29.47 4.25-.69 8.41-1.87 12.6-2.84 13.72-.36 27.53 7.58 32.62 20.73 24.24.26 48.49-.21 72.72.28 8.61-.3 17.88 1.18 24.81 6.66 7.29 5.93 9.25 15.89 9.32 24.83.1 10.41-.35 20.82-.18 31.24 4.41 3.11 9.39 5.81 12.24 10.6 4.49 5.13 4.64 12.28 6.32 18.57-1.03 14.65-9.57 27.47-19.29 37.96-.44 5.73-.04 11.99 3.59 16.73 4.21 5.32 10.88 7.53 16.89 10.15 11.17 4.59 22.15 9.66 33.35 14.22-3.63-19.75-9.86-38.86-15.24-58.16-4.76-12.3-7.93-25.2-8.88-38.36-3.27-11.49-5.4-23.3-9.24-34.62-6.26-17.33-11.08-35.34-12.72-53.63-16.68 3.53-36.6-7.37-38.29-25.41-3.63-8.77.36-17.73 2.25-26.38 1.51-6.62 6.34-11.62 9.9-17.16.8-10.57-1.3-21.34 1.16-31.8 1.96-7.69 3.06-15.68 6.39-22.95-51.92-5.81-104.39-6.49-156.37-1.04m-54.74 29.31c.33 8.37-4.17 15.69-8.52 22.45-6.62 9.45-6.48 22.55-15.71 30.29-5.54 19.37-16.51 36.49-23.85 55.13-3.23 9.72-11.82 16.55-14.5 26.54-9.38 22.48-19.11 44.98-30.44 66.48-3.3 17.83-17.04 31.34-21.19 48.83-.97 3.11-.32 6.89-2.73 9.39-9.71 11.59-14.03 26.34-19.95 39.97-15.86 35.13-32.06 70.1-47.69 105.32-19 42.52-39.57 84.32-57.82 127.17-12.48 26.48-23.94 53.44-37.47 79.39 25.86 58.32 50.98 117.18 80.61 173.76 1.73 5.67 8.73 3.42 13.14 5.14-1.4 5.9-3.1 11.75-4.08 17.73 5.93 14.3 12.61 28.33 20.4 41.73 4.79 13.45 10.31 26.78 18.04 38.85 3.47 5.33 1.67 12.32 5.48 17.53 3.5 7.57 14.59 11.23 12.05 20.99 1.93.51 3.87 1 5.82 1.49 1.16 8.51-2.17 18.01 2.97 25.61 9.64 19.29 20.4 38.12 27.7 58.49 5.31 14.93 13.16 28.76 19.74 43.13 5.48 11.55 8.62 24.06 14.63 35.38 25.46 49.88 45.36 102.35 70.86 152.2 2.32 5.69 4.05 11.6 7.55 16.77.64-.09 1.9-.27 2.54-.35.41-70.9-.01-141.81.2-212.71.9-12.51-.08-25.91-6.93-36.79-.24 5.59-.06 11.2-.11 16.8-4.24-.01-8.48 0-12.71 0-1.66-12.09-16.11-14.21-21.87-23.46-.58-2.6 4.07-3.78 3.42-6.2-7.5-6.5-16.03-12-22.27-19.85-4.44-4.92-8.11-10.54-13.09-14.94-4.39-3.7-8.87-7.7-10.7-13.33-5.03-2.24-10.25-4.09-15.03-6.85 4.16-.42 8.29-1.03 12.41-1.72-1.05-5.8-4.69-11.68-2.17-17.58 2.98-12.88 3.02-26.38 7.16-39.02 1.7-5.56-.27-11.85 2.96-17.02 2.35-3.57 2.27-7.92 1.92-12-1.08-6.53 4.54-11.63 4.2-18.11.15-16.67-1-33.34-1.97-49.99 41.75 6.33 73.22 46.39 74.92 87.78 1.84 1.61 3.68 3.24 5.62 4.75 3.39-11.23 6.09-22.89 4.77-34.69 1.39-14.35-6.07-27.54-5.24-41.88 10.28 3.97 21.25 6.85 30.25 13.47 12.87 8.81 25.81 18.23 34.85 31.17 11.82 15.95 22.9 32.88 29.11 51.89 6.47 18.73 11.86 37.89 14.73 57.53 1.4 9.2 6.03 18.45 14.71 22.7a123.61 123.61 0 01-7.88 4.6c-1.83 21.19 3.47 43.48-5.03 63.75-2.27-.01-4.54-.01-6.8.01-5.55 6.24-10.72 12.82-15.81 19.44-1.58 2.35.41 4.77 2 6.46-8.85 12.59-19.13 24.21-27.08 37.42-3.15 4.72-2.61 10.69-4.25 15.82-8.51 5.59-12.41 15.38-16.84 24.11 12.31 27.44 24.32 55 36.63 82.44-6.94 12.62-14.33 25.67-25.89 34.63-.05 3.8-.03 7.61-.08 11.43-5.03 3.04-12.67 5.02-13.31 11.94-2.35 10.55-11.69 17.13-17.11 25.92-1.38 7.62.49 15.78 4.55 22.37 6.95 11.63 15.17 22.88 18.63 36.19 3.33 13.51 12.27 24.79 15.83 38.23 3.51 13.54 11.08 25.44 17.05 37.96 8.85 18.97 17.18 38.19 26.01 57.16 5.39.66 9.5-5.55 10.47-10.44 2.37-11.92 8.1-22.72 13.7-33.38 7.53-14.04 10.95-30.24 20.98-42.91 1.48-1.7 1.3-4.1 1.88-6.13 2.02-10.57 9.33-18.92 13.36-28.68 4.71-12.74 11.03-24.77 16.66-37.11-5.2-3.58-12.19-6.84-18.33-3.58-5.03 2.17-7.43 7.32-10.62 11.36-6.12 2.06-12.79 2.87-18.62 5.55-1.26 7.28-3.85 14.44-9.15 19.8-7.03 7.17-13.21 15.07-19.73 22.68-6.47-11.29-21.67-8.37-30.3-16.73-.6-5.19 1.54-11.24-2.15-15.6-10.75-16.46-21.39-34.34-22.27-54.5-.29-1.52.78-2.71 1.55-3.86 16.77-22.56 31.93-46.33 49.8-68.06 5.71-6.66 6.37-16.33 3.63-24.39-7.32-22.19-13.27-44.79-19.91-67.18-1.99-5.87 1.88-11.26 4.81-16 4.9-8.86 8.29-18.55 14.36-26.74 20.52-30.24 39.8-61.31 60.39-91.5 5.58-8.06 8-18.15 6.49-27.85-1.36-20.27-5.49-40.61-2.85-60.93-5.63-4.97-2.91-12.36-3.27-18.69-2.95-5.95-5.6-12.42-3.9-19.21-.05-14.78 1.55-29.51 3.88-44.08 6.12-23.43 25.87-45.22 50.87-47.58-2.34 12.72-5.54 25.29-7.11 38.14-.9 10.68-.23 22.4 6.41 31.31-.68-7.04 3.71-11.85 7.58-16.94 5.34-18.83 14.47-37.52 30.3-49.71 8.88-6.53 20.6-10.71 24.64-21.97 11.54 1.13 22.93 3.51 34.47 4.61.44 1.93.9 3.87 1.38 5.81 2.4.59 4.9.86 7.25 1.71 3.13 5.15 5.69 10.64 8.61 15.93-5.18.11-10.5-.66-15.57.33-2.15 2.35-3.69 5.18-5.46 7.82 5.77 1.91 9.08 7.17 11.4 12.44-9.52.08-15.74-7.8-22.28-13.38-8.22 4.76-5.67 15.89-4.38 23.55 5.33 6.53 1.17 15.74 5.27 22.74 3.37 6.02 2.91 13.13 3.45 19.77 1.4 8.74 4.22 17.23 4.83 26.11.31 4.6 3.65 9.35 8.59 9.49.4.97.81 1.95 1.24 2.94-1.17 1.59-2.3 3.21-3.41 4.84 2.12 1.23 4.34 2.3 6.63 3.23-2 6.81-4.82 15.27-12.8 16.81-2.72 5.43-5.39 10.89-8.05 16.35 4.79 5.66 4.24 13.51 2.62 20.28-2.44-.17-5.12.48-7.39-.45-1.66-2.43-2.86-5.14-4.29-7.69-8.41 5.34-8.66 16.42-8.26 25.31-5.24.01-10.47-.01-15.71.03-1.9 2.16-3.78 4.33-5.6 6.56 3.36.62 6.75 1.15 10.16 1.5 2.32 4.34 5.06 9.93-.94 12.56-4.01-1.27-8.06-2.36-12.13-3.4-3.37 5.6-6.88 11.12-10.15 16.79-4.67-2.42-9.1-5.5-14.34-6.59-4.01-.85-5.79-4.92-6.6-8.51-.8-.32-1.59-.63-2.37-.93a243.64 243.64 0 00-3.2 3.23c.95 5.82 2.24 11.64 1.89 17.59.14 27 .21 54 .14 81-.01 7.3 1.82 15.23 9.15 18.42 1.37-3.85 2.64-7.73 3.91-11.61 4 3.76 8.02 7.52 12.28 11.01 2.87-4.09 5.95-8.03 8.91-12.05 3.48 1.19 6.9 2.59 10.42 3.71.7-3.54 1.26-7.1 1.92-10.63 3.98-.01 7.96 0 11.95-.06 3.91-5.47 9.56-10.02 11.28-16.79 4.07-14.72 11.48-28.3 20.48-40.55 4.05-5.45 4.58-12.48 7.69-18.39 4.15-8.36 4.15-18.38 9.76-26.07 9.56-13.88 14.52-30.3 17.5-46.72 2.83-5.77 7.93-10.15 10.8-15.94 5.61-11.31 10.64-22.99 13.81-35.24 1.45-5.33 4-10.33 7.56-14.56 10.41-13.02 15.25-29.23 23.47-43.53 5.91-10.43 8-22.53 14.07-32.86 1.42-3.48.59-7.45 2.04-10.94 9.02-18.54 16.73-37.71 26.02-56.13 7.78-14.15 13.97-29.2 18.06-44.82 2.65-2.03 5.5-3.88 7.75-6.37 1.65-5.74 2.33-11.75 3.3-17.63-1.87-.46-3.73-.92-5.57-1.38 11.13-10.9 22.95-22.25 27.27-37.78 3.74-15.42 12.18-28.99 18.85-43.2 1.12-11.5-5.35-22.5-13.79-29.88-4.17-8.2-1.74-19.23-8.88-26.1-8.32-12.21-11.88-27.19-21.4-38.67-4.29-5.38-13.27-1.94-15.99-9.07 3.82-2.22 7.64-4.43 11.5-6.59-2.16-2.22-4.67-4.02-7.05-5.96-1.08-3.96.53-8.45-1.75-12.15-6.03-11.25-8.76-23.89-14.62-35.21-11.07-21.89-21.43-44.19-29.87-67.24-3.19-8.74-9.81-15.59-17.54-20.5-5.17-3.78-5.48-10.08-2.39-15.31-2.38-.83-4.74-1.69-7.11-2.49-.19-5.81-.08-11.62-.1-17.44-2.58-2.8-6.21-5.02-7.25-8.89-5.87-19.26-15.35-37.1-23.69-55.34-1.95-4.58-6.25-7.97-7-13.07-2.29-11.89-9.64-21.89-13.71-33.14-4.09-11.51-9.04-22.69-14.32-33.69-5.3-10.91-8.57-22.77-14.96-33.14-6.97-11.95-10.32-26.44-21.17-35.78-3.15-2.36-1.3-6.69-3.24-9.65-6.47-11.8-8.2-25.54-14.77-37.29-11.51-18.76-20.72-38.81-28.7-59.3-3.68-9.75-10.14-18.98-19.72-23.65-8.18 14.27-4.94 31.06-5.3 46.66.02 4.08-.03 8.77-3.23 11.78-5.72 6.4-11.84 14.03-10.77 23.2 7.18-1.31 14.43-2.18 21.61-3.5 5.55-1.94 8.4 4.86 12.01 7.88 1.5 6.27 2.32 12.81 5.42 18.58 3.74 6.31.85 13.86 2.37 20.68 2.84 14.84 9.62 28.57 12.67 43.36 2.43 12.48 7.65 24.4 8.38 37.21.18 4.87 1.36 9.62 3.23 14.11 10.35 31.28 17.8 63.41 24.56 95.63 3.99 25.06 17.12 48.21 17.96 73.83.93 1.48 2.13 2.77 3.26 4.12-2.9 2.96-5.6 6.11-8.31 9.26-.27 4.02 1.2 8.84-2.21 11.91-12.99 14.8-30.79 26.58-36.97 46.25 4.49-1.59 9.25-1.45 13.95-1.57 4.82-.12 8.21-4.49 13.01-4.72 5.61-.84 9.55 4.72 15.14 4.28 5.32.75 12.66-2.04 16.32 3.14 7.73 20.93 14.08 42.47 17.85 64.5 1.1 5.33 2.41 10.75 5.35 15.41 6.97 10.4 5.05 24.61 13.96 34.01-3.57 13.73 8.74 25.26 6.83 38.93-.24 4.26-3.6 7.54-3.74 11.8-.26 1.98-.15 4.29-1.9 5.67-5.33 5.35-10.75 10.67-16.76 15.25-6.72 4.95-15.38 5.66-23.43 6.27 1.08 2.85 2.37 5.62 3.71 8.38-12.22 4.83-25.4 5.98-38.32 7.45-14.92 1.93-28.93-5.51-41.41-12.65-.8-7.08-2.72-14.19-2.46-21.31 13.89-20.61 28.44-42.06 50.55-54.67-15.36-4.17-30.73 2.47-43.39 10.77-9.31 5.27-18.88 10.97-24.58 20.38-3.64 6.62-10.67 11.67-11.19 19.73-.08 8.72-9.68 13.08-10.7 21.53-.87 6-4.02 12.42-10.67 13.35-2.35-9.57-3.14-19.77 1.09-28.96 2.41-8.94 9.88-17.41 6.61-27.1-6.16 3.39-12.76 6.95-16.08 13.49-5.09 9.44-15.05 16.22-17.05 27.2-.74 6.53-2.34 15.26-10.66 15.34-.08-8.78-.03-17.55-.03-26.33-.46.24-1.39.73-1.85.97-5.29-10.14-10.31-20.41-15.48-30.61-5.05.27-10.64.6-13.64-4.29-.04-3.89-.05-7.78-.01-11.67 2.69-.79 5.35-1.67 8.01-2.58-11.98-13.25-24.39-26.11-36.66-39.1-1.2-1.74-3.43-1.05-5.19-1.19-7.12.06-14.09-3.2-18.76-8.53 1.24-9.64 2.41-19.28 3.61-28.92 4.28-14.95 13.19-29.01 26.77-37.17 23.45-13.94 50.83-20.64 72.94-37.03 19.94-14.78 33.49-37.27 38.74-61.41 1.12-5.62.6-11.45-.99-16.93-3.26-11.76-7.17-23.32-11.04-34.89-.98-3.22 3.15-6.74.64-9.63-9.45-10.63-19.8-21.17-33.13-26.82-14.62-6.14-30.35-8.8-45.6-12.89-5.29 3.55-11.27 6.81-17.29 2.7 2.04-6.59 1.74-15.59 9.03-18.89 3.73 1.09 7.25 2.8 10.87 4.22 16.14-10.67 31.7-22.28 48.73-31.55 6.5-3.3 8.63-10.83 12.55-16.46-4.51 1.14-8.83 2.91-12.88 5.16-18.12 9.53-38.68 15.91-59.32 13.7-10.4-.15-20.81-.02-31.21-.06-2.48 3.06-5.23 5.89-7.58 9.05-.81-4.24-1.34-8.55-2.57-12.7-3.6-4.43-8.37-7.71-12.26-11.88 2.75-4.25 6.03-8.22 8.28-12.76-2.61-16.89-13.64-32.13-11.7-49.76-.32-7.1 7.58-11.7 6.21-18.92-.32-1.03-.09-3.52-1.87-2.78-10.56 6.71-12.55 20.09-19.24 29.83-.08 12.87-1.37 25.8.26 38.64 2.04 12.85 7.21 24.88 11.4 37.13-2.56.45-5.76.15-7.51 2.46-10.37 11.78-15.16 27.15-24.39 39.69 1.65 8.21 5.01 16.01 6.62 24.23-4.22 9.97-11.47 18.25-21.36 22.87.09 8.87.01 17.74.04 26.61 6.98 6.86 13.75 13.92 20.83 20.67.26-6.33-.46-12.76.33-19.02 14.22-18.55 31.21-34.81 48.72-50.23 1.74-1.44 3.35-3.6 5.92-3.14 11.58.13 23.19 1.07 34.74-.39 16.61-.91 31.57 8.14 45.19 16.54 14.76 9.42 21.15 26.54 25.57 42.63 3.73 1.48 8.19.33 12.21.59 3.35 9.32-2.06 18.35-5.6 26.71-.56 1.95-2.28 3.05-3.85 4.13-3.59-1.56-7.29-2.8-10.99-4.04-10.42 8.63-20.63 17.52-31.13 26.05-2.67 2.09-5.41 4.79-9.04 4.75-18.5.65-33.87 13.08-52.03 15.33-19.91 6.14-38.5 17.78-51.37 34.33-6.23 18.18-17.29 34.89-19.43 54.3-1.6 18.06 4.75 35.48 10.59 52.25 2.72 8.55 9.42 15.42 10.58 24.52 1.42 8.86 7.82 15.82 10.41 24.15-3.48 8.56 6.43 16.53 1.86 24.97-3.62-.76-6.75-5.09-7.86-8.72-1.29-7.54-7.85-12.34-10.92-19.07-5.84-11.39-14.19-24.57-28.44-25.21 4 12.46 8.91 24.62 12.56 37.19 5.5 8.74 5.86 19.18 4.76 29.15-7.8-6.83-12.75-16.45-15.6-26.31-2.35-8.8-7.64-16.35-11.44-24.53-5.03-10.31-14.93-16.89-24.57-22.43-7.98-5.07-16.6-8.99-25.3-12.61-7.15-.63-14.38-.13-21.56-.21 6.33 5.34 14.3 8.51 19.98 14.66 7.87 7.17 13.25 16.49 18.57 25.59 2.03 2.87.3 6.76 2.28 9.65 2.18 3.65 6.8 6.18 6.05 11.05-3.04 0-6.07.01-9.1.01-2.17 2.29-3.71 5.19-6.15 7.19-4.39.22-8.95-.99-13.19.58-16.59 6.28-34.52 1.91-51.72 2.93-3.54.62-6.01-2.46-8.98-3.76-9.33-4.74-18.57-9.67-27.98-14.25.8-6.15-2.97-11.42-3.55-17.39-2.41-12.05 3.9-23.19 7.46-34.29 6.22-23.28 12.8-46.53 16.62-70.35 3.91-18.11 11.39-35.59 11.55-54.37 9.73-8.89 23.44-4.91 34.72-2.01 13.84 2.03 23.75 12.64 33.12 22.03-.12-7.03.33-14.1-.19-21.11-6.17-10.79-21.49-13.14-25.34-25.76-6.91.13-6.93-8.22-11.81-11.16-3.29-2.01-7.08-2.95-10.64-4.33-.78-19.29 3.41-38.29 8.22-56.85 2.76-15.68 8.18-30.66 11.85-46.11 5.73-24.01 14.75-47.14 19.43-71.41 2.28-11.72 7.41-22.74 8.77-34.66 1.71-13.2 5.72-25.92 8.84-38.81 5.09-20.74 13.73-40.69 15.86-62.09.29-9.93 5.73-18.55 9.97-27.19 6.01-.93 12.45-.3 18.61-.32 5.03 4.45 9.39 10.48 16.89 10.61-2.65-14.6-13.83-25.19-21.23-37.39-.54-18.25.02-36.55-.27-54.82-.59-4.42-2.37-9.12-5.89-11.99-10.79 7.63-8.36 24.18-18.79 32.35M345 210.02c-78.39 60.06-144.35 136.09-193.15 221.93-34.59 60.22-59.07 125.88-75.63 193.22-14.82 59.76-22.34 121.31-22.96 182.85-1.32 9.56-1.36 19.39-.1 28.96 1.23 71.01 13.76 141.57 33.2 209.78 10.99 36.6 25.63 72.05 42.77 106.18 38.61 77.18 88.86 148.88 150.69 209.23 57.61 57.38 124.48 105.4 197.12 141.92 35.02 17.89 71.18 33.9 109.01 44.88 49.48 13.19 99.67 23.68 150.06 32.81 13.92 2.65 28.17 2.55 42.29 2.3-7.39-16.85-14.82-33.71-23.34-50.03-4.25-8.15-8.22-16.52-10.5-25.45-3.62-12.84-12.05-23.73-15.37-36.69-3.19-12.96-11.06-23.92-17.86-35.15-5.2-7.61-6.16-17.01-8.35-25.73-2.17-8.89.48-17.86 2.9-26.37 2.43-5.03 6.36-9.12 9.42-13.76-10.99 3.7-23.78.94-32.56-6.57-10.76-10.44-13.49-25.64-20.71-38.28-12.17-23.45-22.12-47.95-32.94-72.03-.67-1.94-2.28-3.18-4.13-3.85-23.58-10.54-46.92-21.61-70.31-32.55-5.6-3.03-12.51-1.46-16.67 3.22-25.99 26.36-52.9 51.77-79.35 77.65-5.68 5.05-12.54 10.24-20.56 9.67-9.29-1.26-16.22-8.29-22.55-14.59-25.82-25.84-51.65-51.68-77.49-77.5-5.25-5.39-11.29-11.18-12.2-19.05.33-7.57 6.02-13.21 10.8-18.48 25.25-25.76 50.2-51.8 75.6-77.41 3.88-3.67 8.45-8.57 6.04-14.37-22.68-54.49-45.17-109.07-66.93-163.94-2.01-4.89-4.26-10.32-9.19-12.94-5.51-2.92-12.03-2.24-18.02-1.79-30.99 1.48-62.05 1.4-93.06.46-8.99-.26-18.71 1.15-26.8-3.78-7.22-4.18-10.01-12.84-10.2-20.75-.2-40.67 3.23-81.39.06-122.01-.47-11.78.73-25.48 10.42-33.59 9.86-8.09 23.56-7.48 35.56-6.84 25.33.2 50.65.46 75.96 1.34 7.55.49 15.71 1.35 22.66-2.3 5.7-2.98 8.93-8.93 11.21-14.69 21.7-52.81 44.73-105.06 67.73-157.31 2.31-4.28.94-9.43-2.4-12.72-26.36-26.97-52.61-54.06-78.97-81.04-4.78-5.54-12.5-11.97-9.48-20.16 4.95-10.12 14.41-16.92 21.66-25.29 26.59-27.41 53.37-54.63 80.45-81.57 4.8-4.64 11.14-9.15 18.2-7.78 7.96 1.86 13.36 8.49 18.94 13.97 16.82 16.61 32.57 34.25 49 51.24 8.23-16.02 13.71-33.29 22.03-49.27 2.55-5.66 8.02-9.86 8.68-16.32 3.44-18.69 18.28-32.69 21.81-51.34 11.31-21.78 21.35-44.41 30.72-67.17 2.42-8.99 9.57-15.45 13.4-23.71 6.87-18.83 18.29-35.73 23.87-55.07 1.74-6.88 8.64-10.96 10.1-17.95 2.09-7.5 5.89-14.3 10.13-20.77 4.1-5.94 2.61-14.06 7.21-19.73C547.63 87.52 438.17 138.23 345 210.02M974.26 64.46c9.45 20.53 17.03 42.03 28.85 61.42 12.23 17.85 13.31 41.13 26.68 58.29 7.33 9.48 10.65 21.16 16.62 31.41 6.26 10.14 9.54 21.71 14.57 32.45 5.3 10.64 9.98 21.59 14.14 32.73 3.97 11.89 11.75 22.26 14.35 34.65.7 5.15 5.04 8.56 6.88 13.25 8.08 17.19 16.78 34.18 22.79 52.24.89 2.6 2.8 4.65 4.47 6.79 14.2-14.16 28.79-27.93 43.04-42.03 8.37-6.9 14.76-16.41 24.73-21.19 6.98-3.07 13.92 1.71 18.93 6.25 30.59 29.05 60.4 58.91 90.61 88.36 5.88 5.82 12.66 12.18 13.44 20.94-.23 7.57-5.51 13.65-10.74 18.59-25.93 26.11-53.59 50.4-79.97 76.02-5.23 4.46-6.38 11.81-3.12 17.8 22.91 52.99 45.7 106.04 67.66 159.43 2.23 6.29 7.65 12.03 14.83 11.56 32.98-.48 65.96-1.17 98.94-.55 10.51 1.19 21.84-1.66 31.62 3.52 6.83 3.46 9.86 11.29 10.37 18.54.67 22.03-.92 44.04-.68 66.07-.43 13.99-1.29 28.03 0 42.01.2 13.74 3.21 28.42-2.9 41.37-3.74 8.43-12.6 13.33-21.44 14.51-10.27 1.24-20.62.14-30.92.35-26.34-.11-52.69.41-79.01-.76-7.86-.71-15.27 4.2-17.95 11.55-23.46 54.31-47.36 108.43-71.74 162.33-2.92 5.44-1.35 12.12 3.14 16.18 23 21.66 46.16 43.17 69.26 64.73 7.55 6.41 15.73 12.81 20.27 21.84 4.4 11.73-7.18 20.93-14.06 28.81-27.4 28.26-54.91 56.41-82.81 84.19-6.07 6.01-12.75 13.36-21.94 13.53-11.72-1.66-18.95-12.28-26.86-19.98-22.78-23.24-44.43-47.54-66.99-70.97-4.58-5.43-12.29-6.03-18.27-2.64-52.32 24.04-104.37 48.69-157.04 71.97-8.39 3.28-13.71 12.01-12.74 20.99.92 30.66.81 61.34 1.01 92.02-.7 4.21 4.31 5.53 5.81 8.9 5 5.49 5.38 13.19 7.08 20.07-1.81 18.44-13.58 33.62-19.27 50.9-3.59 9.34-10.83 17.09-12.71 27.11-.81 3.31-1.17 6.94-3.48 9.63-9.31 11.4-12.39 26.19-19.02 39.06-4.05 8.61-9.42 16.71-11.93 25.97 12.82-.14 25.56-2.24 38.33-3.37 72.9-7.37 144.2-26.64 212.51-52.8 93.79-35.99 180.4-91.29 250.97-162.93 67.29-67.45 120.2-148.28 160.65-234.3 29.9-64.83 45.58-135.11 56.55-205.33 6.49-46.97 10.41-94.6 6.82-141.94-5.01-108.05-30.53-215.65-78.94-312.63-28.62-57.91-64.98-111.88-106.97-160.92-54.16-63.9-119.38-118.38-192.05-160.08-26.09-15.62-54.87-25.82-82.36-38.59-48.08-21.18-98.61-36.6-150.01-47.32M720.19 181.61c-5.51 29.33-16.99 57.13-22.52 86.45-1.88 14.22-5.86 28.06-9.96 41.78-3.87 18-8.74 35.77-14.12 53.37 9.83-3.91 19.52-8.2 29.31-12.21.45-5.91 1.82-11.83 3.85-17.38 6.29-8.42 10.57-18.05 15.75-27.15 5.3-7.01 2.2-16.32 2.79-24.43-3.51-21.07-4.09-43.06.45-63.99.09-8.76 1.47-19.75 10.27-24.11 5.58-1.97 7.65-7.97 11.44-12.01-4.51.75-8.85 2.48-13.4 2.83-4.66-.85-9.21-2.23-13.86-3.15z"/>
  <g fill="none">
    <path d="M744 51.98c51.98-5.45 104.45-4.77 156.37 1.04-3.33 7.27-4.43 15.26-6.39 22.95-2.46 10.46-.36 21.23-1.16 31.8-3.56 5.54-8.39 10.54-9.9 17.16-1.89 8.65-5.88 17.61-2.25 26.38 1.69 18.04 21.61 28.94 38.29 25.41 1.64 18.29 6.46 36.3 12.72 53.63 3.84 11.32 5.97 23.13 9.24 34.62.95 13.16 4.12 26.06 8.88 38.36 5.38 19.3 11.61 38.41 15.24 58.16-11.2-4.56-22.18-9.63-33.35-14.22-6.01-2.62-12.68-4.83-16.89-10.15-3.63-4.74-4.03-11-3.59-16.73 9.72-10.49 18.26-23.31 19.29-37.96-1.68-6.29-1.83-13.44-6.32-18.57-2.85-4.79-7.83-7.49-12.24-10.6-.17-10.42.28-20.83.18-31.24-.07-8.94-2.03-18.9-9.32-24.83-6.93-5.48-16.2-6.96-24.81-6.66-24.23-.49-48.48-.02-72.72-.28-5.09-13.15-18.9-21.09-32.62-20.73-4.19.97-8.35 2.15-12.6 2.84 6.02-8.29 8.59-19.65 5.08-29.47-2.06-12.83-9.46-23.76-17.12-33.91-3.56-3.8-1.5-9.32-2.01-13.98-.78-14.32 1.85-29.03-2-43.02zM345 210.02c93.17-71.79 202.63-122.5 317.92-146.08-4.6 5.67-3.11 13.79-7.21 19.73-4.24 6.47-8.04 13.27-10.13 20.77-1.46 6.99-8.36 11.07-10.1 17.95-5.58 19.34-17 36.24-23.87 55.07-3.83 8.26-10.98 14.72-13.4 23.71-9.37 22.76-19.41 45.39-30.72 67.17-3.53 18.65-18.37 32.65-21.81 51.34-.66 6.46-6.13 10.66-8.68 16.32-8.32 15.98-13.8 33.25-22.03 49.27-16.43-16.99-32.18-34.63-49-51.24-5.58-5.48-10.98-12.11-18.94-13.97-7.06-1.37-13.4 3.14-18.2 7.78-27.08 26.94-53.86 54.16-80.45 81.57-7.25 8.37-16.71 15.17-21.66 25.29-3.02 8.19 4.7 14.62 9.48 20.16 26.36 26.98 52.61 54.07 78.97 81.04 3.34 3.29 4.71 8.44 2.4 12.72-23 52.25-46.03 104.5-67.73 157.31-2.28 5.76-5.51 11.71-11.21 14.69-6.95 3.65-15.11 2.79-22.66 2.3-25.31-.88-50.63-1.14-75.96-1.34-12-.64-25.7-1.25-35.56 6.84-9.69 8.11-10.89 21.81-10.42 33.59 3.17 40.62-.26 81.34-.06 122.01.19 7.91 2.98 16.57 10.2 20.75 8.09 4.93 17.81 3.52 26.8 3.78 31.01.94 62.07 1.02 93.06-.46 5.99-.45 12.51-1.13 18.02 1.79 4.93 2.62 7.18 8.05 9.19 12.94 21.76 54.87 44.25 109.45 66.93 163.94 2.41 5.8-2.16 10.7-6.04 14.37-25.4 25.61-50.35 51.65-75.6 77.41-4.78 5.27-10.47 10.91-10.8 18.48.91 7.87 6.95 13.66 12.2 19.05 25.84 25.82 51.67 51.66 77.49 77.5 6.33 6.3 13.26 13.33 22.55 14.59 8.02.57 14.88-4.62 20.56-9.67 26.45-25.88 53.36-51.29 79.35-77.65 4.16-4.68 11.07-6.25 16.67-3.22 23.39 10.94 46.73 22.01 70.31 32.55 1.85.67 3.46 1.91 4.13 3.85 10.82 24.08 20.77 48.58 32.94 72.03 7.22 12.64 9.95 27.84 20.71 38.28 8.78 7.51 21.57 10.27 32.56 6.57-3.06 4.64-6.99 8.73-9.42 13.76-2.42 8.51-5.07 17.48-2.9 26.37 2.19 8.72 3.15 18.12 8.35 25.73 6.8 11.23 14.67 22.19 17.86 35.15 3.32 12.96 11.75 23.85 15.37 36.69 2.28 8.93 6.25 17.3 10.5 25.45 8.52 16.32 15.95 33.18 23.34 50.03-14.12.25-28.37.35-42.29-2.3-50.39-9.13-100.58-19.62-150.06-32.81-37.83-10.98-73.99-26.99-109.01-44.88-72.64-36.52-139.51-84.54-197.12-141.92-61.83-60.35-112.08-132.05-150.69-209.23-17.14-34.13-31.78-69.58-42.77-106.18-19.44-68.21-31.97-138.77-33.2-209.78-1.26-9.57-1.22-19.4.1-28.96.62-61.54 8.14-123.09 22.96-182.85 16.56-67.34 41.04-133 75.63-193.22 48.8-85.84 114.76-161.87 193.15-221.93z"/>
    <path d="M974.26 64.46c51.4 10.72 101.93 26.14 150.01 47.32 27.49 12.77 56.27 22.97 82.36 38.59 72.67 41.7 137.89 96.18 192.05 160.08 41.99 49.04 78.35 103.01 106.97 160.92 48.41 96.98 73.93 204.58 78.94 312.63 3.59 47.34-.33 94.97-6.82 141.94-10.97 70.22-26.65 140.5-56.55 205.33-40.45 86.02-93.36 166.85-160.65 234.3-70.57 71.64-157.18 126.94-250.97 162.93-68.31 26.16-139.61 45.43-212.51 52.8-12.77 1.13-25.51 3.23-38.33 3.37 2.51-9.26 7.88-17.36 11.93-25.97 6.63-12.87 9.71-27.66 19.02-39.06 2.31-2.69 2.67-6.32 3.48-9.63 1.88-10.02 9.12-17.77 12.71-27.11 5.69-17.28 17.46-32.46 19.27-50.9-1.7-6.88-2.08-14.58-7.08-20.07-1.5-3.37-6.51-4.69-5.81-8.9-.2-30.68-.09-61.36-1.01-92.02-.97-8.98 4.35-17.71 12.74-20.99 52.67-23.28 104.72-47.93 157.04-71.97 5.98-3.39 13.69-2.79 18.27 2.64 22.56 23.43 44.21 47.73 66.99 70.97 7.91 7.7 15.14 18.32 26.86 19.98 9.19-.17 15.87-7.52 21.94-13.53 27.9-27.78 55.41-55.93 82.81-84.19 6.88-7.88 18.46-17.08 14.06-28.81-4.54-9.03-12.72-15.43-20.27-21.84-23.1-21.56-46.26-43.07-69.26-64.73-4.49-4.06-6.06-10.74-3.14-16.18 24.38-53.9 48.28-108.02 71.74-162.33 2.68-7.35 10.09-12.26 17.95-11.55 26.32 1.17 52.67.65 79.01.76 10.3-.21 20.65.89 30.92-.35 8.84-1.18 17.7-6.08 21.44-14.51 6.11-12.95 3.1-27.63 2.9-41.37-1.29-13.98-.43-28.02 0-42.01-.24-22.03 1.35-44.04.68-66.07-.51-7.25-3.54-15.08-10.37-18.54-9.78-5.18-21.11-2.33-31.62-3.52-32.98-.62-65.96.07-98.94.55-7.18.47-12.6-5.27-14.83-11.56-21.96-53.39-44.75-106.44-67.66-159.43-3.26-5.99-2.11-13.34 3.12-17.8 26.38-25.62 54.04-49.91 79.97-76.02 5.23-4.94 10.51-11.02 10.74-18.59-.78-8.76-7.56-15.12-13.44-20.94-30.21-29.45-60.02-59.31-90.61-88.36-5.01-4.54-11.95-9.32-18.93-6.25-9.97 4.78-16.36 14.29-24.73 21.19-14.25 14.1-28.84 27.87-43.04 42.03-1.67-2.14-3.58-4.19-4.47-6.79-6.01-18.06-14.71-35.05-22.79-52.24-1.84-4.69-6.18-8.1-6.88-13.25-2.6-12.39-10.38-22.76-14.35-34.65-4.16-11.14-8.84-22.09-14.14-32.73-5.03-10.74-8.31-22.31-14.57-32.45-5.97-10.25-9.29-21.93-16.62-31.41-13.37-17.16-14.45-40.44-26.68-58.29-11.82-19.39-19.4-40.89-28.85-61.42zM720.19 181.61c4.65.92 9.2 2.3 13.86 3.15 4.55-.35 8.89-2.08 13.4-2.83-3.79 4.04-5.86 10.04-11.44 12.01-8.8 4.36-10.18 15.35-10.27 24.11-4.54 20.93-3.96 42.92-.45 63.99-.59 8.11 2.51 17.42-2.79 24.43-5.18 9.1-9.46 18.73-15.75 27.15-2.03 5.55-3.4 11.47-3.85 17.38-9.79 4.01-19.48 8.3-29.31 12.21 5.38-17.6 10.25-35.37 14.12-53.37 4.1-13.72 8.08-27.56 9.96-41.78 5.53-29.32 17.01-57.12 22.52-86.45z"/>
  </g>
  <path fill="none" d="M689.26 81.29c10.43-8.17 8-24.72 18.79-32.35 3.52 2.87 5.3 7.57 5.89 11.99.29 18.27-.27 36.57.27 54.82 7.4 12.2 18.58 22.79 21.23 37.39-7.5-.13-11.86-6.16-16.89-10.61-6.16.02-12.6-.61-18.61.32-4.24 8.64-9.68 17.26-9.97 27.19-2.13 21.4-10.77 41.35-15.86 62.09-3.12 12.89-7.13 25.61-8.84 38.81-1.36 11.92-6.49 22.94-8.77 34.66-4.68 24.27-13.7 47.4-19.43 71.41-3.67 15.45-9.09 30.43-11.85 46.11-4.81 18.56-9 37.56-8.22 56.85 3.56 1.38 7.35 2.32 10.64 4.33 4.88 2.94 4.9 11.29 11.81 11.16 3.85 12.62 19.17 14.97 25.34 25.76.52 7.01.07 14.08.19 21.11-9.37-9.39-19.28-20-33.12-22.03-11.28-2.9-24.99-6.88-34.72 2.01-.16 18.78-7.64 36.26-11.55 54.37-3.82 23.82-10.4 47.07-16.62 70.35-3.56 11.1-9.87 22.24-7.46 34.29.58 5.97 4.35 11.24 3.55 17.39 9.41 4.58 18.65 9.51 27.98 14.25 2.97 1.3 5.44 4.38 8.98 3.76 17.2-1.02 35.13 3.35 51.72-2.93 4.24-1.57 8.8-.36 13.19-.58 2.44-2 3.98-4.9 6.15-7.19 3.03 0 6.06-.01 9.1-.01.75-4.87-3.87-7.4-6.05-11.05-1.98-2.89-.25-6.78-2.28-9.65-5.32-9.1-10.7-18.42-18.57-25.59-5.68-6.15-13.65-9.32-19.98-14.66 7.18.08 14.41-.42 21.56.21 8.7 3.62 17.32 7.54 25.3 12.61 9.64 5.54 19.54 12.12 24.57 22.43 3.8 8.18 9.09 15.73 11.44 24.53 2.85 9.86 7.8 19.48 15.6 26.31 1.1-9.97.74-20.41-4.76-29.15-3.65-12.57-8.56-24.73-12.56-37.19 14.25.64 22.6 13.82 28.44 25.21 3.07 6.73 9.63 11.53 10.92 19.07 1.11 3.63 4.24 7.96 7.86 8.72 4.57-8.44-5.34-16.41-1.86-24.97-2.59-8.33-8.99-15.29-10.41-24.15-1.16-9.1-7.86-15.97-10.58-24.52-5.84-16.77-12.19-34.19-10.59-52.25 2.14-19.41 13.2-36.12 19.43-54.3 12.87-16.55 31.46-28.19 51.37-34.33 18.16-2.25 33.53-14.68 52.03-15.33 3.63.04 6.37-2.66 9.04-4.75 10.5-8.53 20.71-17.42 31.13-26.05 3.7 1.24 7.4 2.48 10.99 4.04 1.57-1.08 3.29-2.18 3.85-4.13 3.54-8.36 8.95-17.39 5.6-26.71-4.02-.26-8.48.89-12.21-.59-4.42-16.09-10.81-33.21-25.57-42.63-13.62-8.4-28.58-17.45-45.19-16.54-11.55 1.46-23.16.52-34.74.39-2.57-.46-4.18 1.7-5.92 3.14-17.51 15.42-34.5 31.68-48.72 50.23-.79 6.26-.07 12.69-.33 19.02-7.08-6.75-13.85-13.81-20.83-20.67-.03-8.87.05-17.74-.04-26.61 9.89-4.62 17.14-12.9 21.36-22.87-1.61-8.22-4.97-16.02-6.62-24.23 9.23-12.54 14.02-27.91 24.39-39.69 1.75-2.31 4.95-2.01 7.51-2.46-4.19-12.25-9.36-24.28-11.4-37.13-1.63-12.84-.34-25.77-.26-38.64 6.69-9.74 8.68-23.12 19.24-29.83 1.78-.74 1.55 1.75 1.87 2.78 1.37 7.22-6.53 11.82-6.21 18.92-1.94 17.63 9.09 32.87 11.7 49.76-2.25 4.54-5.53 8.51-8.28 12.76 3.89 4.17 8.66 7.45 12.26 11.88 1.23 4.15 1.76 8.46 2.57 12.7 2.35-3.16 5.1-5.99 7.58-9.05 10.4.04 20.81-.09 31.21.06 20.64 2.21 41.2-4.17 59.32-13.7 4.05-2.25 8.37-4.02 12.88-5.16-3.92 5.63-6.05 13.16-12.55 16.46-17.03 9.27-32.59 20.88-48.73 31.55-3.62-1.42-7.14-3.13-10.87-4.22-7.29 3.3-6.99 12.3-9.03 18.89 6.02 4.11 12 .85 17.29-2.7 15.25 4.09 30.98 6.75 45.6 12.89 13.33 5.65 23.68 16.19 33.13 26.82 2.51 2.89-1.62 6.41-.64 9.63 3.87 11.57 7.78 23.13 11.04 34.89 1.59 5.48 2.11 11.31.99 16.93-5.25 24.14-18.8 46.63-38.74 61.41-22.11 16.39-49.49 23.09-72.94 37.03-13.58 8.16-22.49 22.22-26.77 37.17-1.2 9.64-2.37 19.28-3.61 28.92 4.67 5.33 11.64 8.59 18.76 8.53 1.76.14 3.99-.55 5.19 1.19 12.27 12.99 24.68 25.85 36.66 39.1-2.66.91-5.32 1.79-8.01 2.58-.04 3.89-.03 7.78.01 11.67 3 4.89 8.59 4.56 13.64 4.29 5.17 10.2 10.19 20.47 15.48 30.61.46-.24 1.39-.73 1.85-.97 0 8.78-.05 17.55.03 26.33 8.32-.08 9.92-8.81 10.66-15.34 2-10.98 11.96-17.76 17.05-27.2 3.32-6.54 9.92-10.1 16.08-13.49 3.27 9.69-4.2 18.16-6.61 27.1-4.23 9.19-3.44 19.39-1.09 28.96 6.65-.93 9.8-7.35 10.67-13.35 1.02-8.45 10.62-12.81 10.7-21.53.52-8.06 7.55-13.11 11.19-19.73 5.7-9.41 15.27-15.11 24.58-20.38 12.66-8.3 28.03-14.94 43.39-10.77-22.11 12.61-36.66 34.06-50.55 54.67-.26 7.12 1.66 14.23 2.46 21.31 12.48 7.14 26.49 14.58 41.41 12.65 12.92-1.47 26.1-2.62 38.32-7.45-1.34-2.76-2.63-5.53-3.71-8.38 8.05-.61 16.71-1.32 23.43-6.27 6.01-4.58 11.43-9.9 16.76-15.25 1.75-1.38 1.64-3.69 1.9-5.67.14-4.26 3.5-7.54 3.74-11.8 1.91-13.67-10.4-25.2-6.83-38.93-8.91-9.4-6.99-23.61-13.96-34.01-2.94-4.66-4.25-10.08-5.35-15.41-3.77-22.03-10.12-43.57-17.85-64.5-3.66-5.18-11-2.39-16.32-3.14-5.59.44-9.53-5.12-15.14-4.28-4.8.23-8.19 4.6-13.01 4.72-4.7.12-9.46-.02-13.95 1.57 6.18-19.67 23.98-31.45 36.97-46.25 3.41-3.07 1.94-7.89 2.21-11.91 2.71-3.15 5.41-6.3 8.31-9.26-1.13-1.35-2.33-2.64-3.26-4.12-.84-25.62-13.97-48.77-17.96-73.83-6.76-32.22-14.21-64.35-24.56-95.63-1.87-4.49-3.05-9.24-3.23-14.11-.73-12.81-5.95-24.73-8.38-37.21-3.05-14.79-9.83-28.52-12.67-43.36-1.52-6.82 1.37-14.37-2.37-20.68-3.1-5.77-3.92-12.31-5.42-18.58-3.61-3.02-6.46-9.82-12.01-7.88-7.18 1.32-14.43 2.19-21.61 3.5-1.07-9.17 5.05-16.8 10.77-23.2 3.2-3.01 3.25-7.7 3.23-11.78.36-15.6-2.88-32.39 5.3-46.66 9.58 4.67 16.04 13.9 19.72 23.65 7.98 20.49 17.19 40.54 28.7 59.3 6.57 11.75 8.3 25.49 14.77 37.29 1.94 2.96.09 7.29 3.24 9.65 10.85 9.34 14.2 23.83 21.17 35.78 6.39 10.37 9.66 22.23 14.96 33.14 5.28 11 10.23 22.18 14.32 33.69 4.07 11.25 11.42 21.25 13.71 33.14.75 5.1 5.05 8.49 7 13.07 8.34 18.24 17.82 36.08 23.69 55.34 1.04 3.87 4.67 6.09 7.25 8.89.02 5.82-.09 11.63.1 17.44 2.37.8 4.73 1.66 7.11 2.49-3.09 5.23-2.78 11.53 2.39 15.31 7.73 4.91 14.35 11.76 17.54 20.5 8.44 23.05 18.8 45.35 29.87 67.24 5.86 11.32 8.59 23.96 14.62 35.21 2.28 3.7.67 8.19 1.75 12.15 2.38 1.94 4.89 3.74 7.05 5.96-3.86 2.16-7.68 4.37-11.5 6.59 2.72 7.13 11.7 3.69 15.99 9.07 9.52 11.48 13.08 26.46 21.4 38.67 7.14 6.87 4.71 17.9 8.88 26.1 8.44 7.38 14.91 18.38 13.79 29.88-6.67 14.21-15.11 27.78-18.85 43.2-4.32 15.53-16.14 26.88-27.27 37.78 1.84.46 3.7.92 5.57 1.38-.97 5.88-1.65 11.89-3.3 17.63-2.25 2.49-5.1 4.34-7.75 6.37-4.09 15.62-10.28 30.67-18.06 44.82-9.29 18.42-17 37.59-26.02 56.13-1.45 3.49-.62 7.46-2.04 10.94-6.07 10.33-8.16 22.43-14.07 32.86-8.22 14.3-13.06 30.51-23.47 43.53-3.56 4.23-6.11 9.23-7.56 14.56-3.17 12.25-8.2 23.93-13.81 35.24-2.87 5.79-7.97 10.17-10.8 15.94-2.98 16.42-7.94 32.84-17.5 46.72-5.61 7.69-5.61 17.71-9.76 26.07-3.11 5.91-3.64 12.94-7.69 18.39-9 12.25-16.41 25.83-20.48 40.55-1.72 6.77-7.37 11.32-11.28 16.79-3.99.06-7.97.05-11.95.06-.66 3.53-1.22 7.09-1.92 10.63-3.52-1.12-6.94-2.52-10.42-3.71-2.96 4.02-6.04 7.96-8.91 12.05-4.26-3.49-8.28-7.25-12.28-11.01-1.27 3.88-2.54 7.76-3.91 11.61-7.33-3.19-9.16-11.12-9.15-18.42.07-27 0-54-.14-81 .35-5.95-.94-11.77-1.89-17.59 1.06-1.09 2.12-2.16 3.2-3.23.78.3 1.57.61 2.37.93.81 3.59 2.59 7.66 6.6 8.51 5.24 1.09 9.67 4.17 14.34 6.59 3.27-5.67 6.78-11.19 10.15-16.79 4.07 1.04 8.12 2.13 12.13 3.4 6-2.63 3.26-8.22.94-12.56-3.41-.35-6.8-.88-10.16-1.5 1.82-2.23 3.7-4.4 5.6-6.56 5.24-.04 10.47-.02 15.71-.03-.4-8.89-.15-19.97 8.26-25.31 1.43 2.55 2.63 5.26 4.29 7.69 2.27.93 4.95.28 7.39.45 1.62-6.77 2.17-14.62-2.62-20.28 2.66-5.46 5.33-10.92 8.05-16.35 7.98-1.54 10.8-10 12.8-16.81-2.29-.93-4.51-2-6.63-3.23 1.11-1.63 2.24-3.25 3.41-4.84-.43-.99-.84-1.97-1.24-2.94-4.94-.14-8.28-4.89-8.59-9.49-.61-8.88-3.43-17.37-4.83-26.11-.54-6.64-.08-13.75-3.45-19.77-4.1-7 .06-16.21-5.27-22.74-1.29-7.66-3.84-18.79 4.38-23.55 6.54 5.58 12.76 13.46 22.28 13.38-2.32-5.27-5.63-10.53-11.4-12.44 1.77-2.64 3.31-5.47 5.46-7.82 5.07-.99 10.39-.22 15.57-.33-2.92-5.29-5.48-10.78-8.61-15.93-2.35-.85-4.85-1.12-7.25-1.71-.48-1.94-.94-3.88-1.38-5.81-11.54-1.1-22.93-3.48-34.47-4.61-4.04 11.26-15.76 15.44-24.64 21.97-15.83 12.19-24.96 30.88-30.3 49.71-3.87 5.09-8.26 9.9-7.58 16.94-6.64-8.91-7.31-20.63-6.41-31.31 1.57-12.85 4.77-25.42 7.11-38.14-25 2.36-44.75 24.15-50.87 47.58-2.33 14.57-3.93 29.3-3.88 44.08-1.7 6.79.95 13.26 3.9 19.21.36 6.33-2.36 13.72 3.27 18.69-2.64 20.32 1.49 40.66 2.85 60.93 1.51 9.7-.91 19.79-6.49 27.85-20.59 30.19-39.87 61.26-60.39 91.5-6.07 8.19-9.46 17.88-14.36 26.74-2.93 4.74-6.8 10.13-4.81 16 6.64 22.39 12.59 44.99 19.91 67.18 2.74 8.06 2.08 17.73-3.63 24.39-17.87 21.73-33.03 45.5-49.8 68.06-.77 1.15-1.84 2.34-1.55 3.86.88 20.16 11.52 38.04 22.27 54.5 3.69 4.36 1.55 10.41 2.15 15.6 8.63 8.36 23.83 5.44 30.3 16.73 6.52-7.61 12.7-15.51 19.73-22.68 5.3-5.36 7.89-12.52 9.15-19.8 5.83-2.68 12.5-3.49 18.62-5.55 3.19-4.04 5.59-9.19 10.62-11.36 6.14-3.26 13.13 0 18.33 3.58-5.63 12.34-11.95 24.37-16.66 37.11-4.03 9.76-11.34 18.11-13.36 28.68-.58 2.03-.4 4.43-1.88 6.13-10.03 12.67-13.45 28.87-20.98 42.91-5.6 10.66-11.33 21.46-13.7 33.38-.97 4.89-5.08 11.1-10.47 10.44-8.83-18.97-17.16-38.19-26.01-57.16-5.97-12.52-13.54-24.42-17.05-37.96-3.56-13.44-12.5-24.72-15.83-38.23-3.46-13.31-11.68-24.56-18.63-36.19-4.06-6.59-5.93-14.75-4.55-22.37 5.42-8.79 14.76-15.37 17.11-25.92.64-6.92 8.28-8.9 13.31-11.94.05-3.82.03-7.63.08-11.43 11.56-8.96 18.95-22.01 25.89-34.63-12.31-27.44-24.32-55-36.63-82.44 4.43-8.73 8.33-18.52 16.84-24.11 1.64-5.13 1.1-11.1 4.25-15.82 7.95-13.21 18.23-24.83 27.08-37.42-1.59-1.69-3.58-4.11-2-6.46 5.09-6.62 10.26-13.2 15.81-19.44 2.26-.02 4.53-.02 6.8-.01 8.5-20.27 3.2-42.56 5.03-63.75 2.69-1.43 5.31-2.98 7.88-4.6-8.68-4.25-13.31-13.5-14.71-22.7-2.87-19.64-8.26-38.8-14.73-57.53-6.21-19.01-17.29-35.94-29.11-51.89-9.04-12.94-21.98-22.36-34.85-31.17-9-6.62-19.97-9.5-30.25-13.47-.83 14.34 6.63 27.53 5.24 41.88 1.32 11.8-1.38 23.46-4.77 34.69-1.94-1.51-3.78-3.14-5.62-4.75-1.7-41.39-33.17-81.45-74.92-87.78.97 16.65 2.12 33.32 1.97 49.99.34 6.48-5.28 11.58-4.2 18.11.35 4.08.43 8.43-1.92 12-3.23 5.17-1.26 11.46-2.96 17.02-4.14 12.64-4.18 26.14-7.16 39.02-2.52 5.9 1.12 11.78 2.17 17.58-4.12.69-8.25 1.3-12.41 1.72 4.78 2.76 10 4.61 15.03 6.85 1.83 5.63 6.31 9.63 10.7 13.33 4.98 4.4 8.65 10.02 13.09 14.94 6.24 7.85 14.77 13.35 22.27 19.85.65 2.42-4 3.6-3.42 6.2 5.76 9.25 20.21 11.37 21.87 23.46 4.23 0 8.47-.01 12.71 0 .05-5.6-.13-11.21.11-16.8 6.85 10.88 7.83 24.28 6.93 36.79-.21 70.9.21 141.81-.2 212.71-.64.08-1.9.26-2.54.35-3.5-5.17-5.23-11.08-7.55-16.77-25.5-49.85-45.4-102.32-70.86-152.2-6.01-11.32-9.15-23.83-14.63-35.38-6.58-14.37-14.43-28.2-19.74-43.13-7.3-20.37-18.06-39.2-27.7-58.49-5.14-7.6-1.81-17.1-2.97-25.61-1.95-.49-3.89-.98-5.82-1.49 2.54-9.76-8.55-13.42-12.05-20.99-3.81-5.21-2.01-12.2-5.48-17.53-7.73-12.07-13.25-25.4-18.04-38.85-7.79-13.4-14.47-27.43-20.4-41.73.98-5.98 2.68-11.83 4.08-17.73-4.41-1.72-11.41.53-13.14-5.14-29.63-56.58-54.75-115.44-80.61-173.76 13.53-25.95 24.99-52.91 37.47-79.39 18.25-42.85 38.82-84.65 57.82-127.17 15.63-35.22 31.83-70.19 47.69-105.32 5.92-13.63 10.24-28.38 19.95-39.97 2.41-2.5 1.76-6.28 2.73-9.39 4.15-17.49 17.89-31 21.19-48.83 11.33-21.5 21.06-44 30.44-66.48 2.68-9.99 11.27-16.82 14.5-26.54 7.34-18.64 18.31-35.76 23.85-55.13 9.23-7.74 9.09-20.84 15.71-30.29 4.35-6.76 8.85-14.08 8.52-22.45z"/>
  </symbol>
</svg>
